<svg width="26" height="20" viewBox="0 0 26 20" fill="none" xmlns="http://www.w3.org/2000/svg">
<path d="M17.396 20H1.771C1.2585 20 0.833496 19.575 0.833496 19.0625V8.4375C0.833496 3.7875 4.621 0 9.271 0H17.396C22.046 0 25.8335 3.7875 25.8335 8.4375V11.5625C25.8335 16.2125 22.046 20 17.396 20ZM2.7085 18.125H17.396C21.0085 18.125 23.9585 15.175 23.9585 11.5625V8.4375C23.9585 4.8125 21.0085 1.875 17.396 1.875H9.271C5.6585 1.875 2.7085 4.8125 2.7085 8.4375V18.125Z" fill="#F8FAFC"/>
<path d="M8.3335 11.25C8.0085 11.25 7.6835 11.1125 7.446 10.8875C7.221 10.65 7.0835 10.325 7.0835 10C7.0835 9.6625 7.221 9.35 7.446 9.1125C7.9085 8.65 8.7585 8.65 9.221 9.1125C9.271 9.175 9.321 9.2375 9.371 9.3C9.421 9.375 9.4585 9.45 9.4835 9.525C9.521 9.6 9.546 9.675 9.5585 9.75C9.571 9.8375 9.5835 9.925 9.5835 10C9.5835 10.075 9.571 10.1625 9.5585 10.25C9.546 10.325 9.521 10.4 9.4835 10.475C9.4585 10.55 9.421 10.625 9.371 10.6875C9.321 10.7625 9.271 10.825 9.221 10.8875C8.9835 11.1125 8.6585 11.25 8.3335 11.25Z" fill="#F8FAFC"/>
<path d="M13.3335 11.25C13.171 11.25 13.0085 11.2125 12.8585 11.15C12.696 11.0875 12.571 11 12.446 10.8875C12.221 10.65 12.0835 10.325 12.0835 10C12.0835 9.8375 12.121 9.675 12.1835 9.525C12.246 9.3625 12.3335 9.2375 12.446 9.1125C12.571 9 12.696 8.9125 12.8585 8.85C13.0835 8.75 13.3335 8.725 13.571 8.775C13.6585 8.7875 13.7335 8.8125 13.8085 8.85C13.8835 8.875 13.9585 8.9125 14.021 8.9625C14.096 9 14.1585 9.0625 14.221 9.1125C14.3335 9.2375 14.421 9.3625 14.4835 9.525C14.546 9.675 14.5835 9.8375 14.5835 10C14.5835 10.325 14.446 10.65 14.221 10.8875C14.1585 10.9375 14.096 11 14.021 11.0375C13.9585 11.0875 13.8835 11.125 13.8085 11.15C13.7335 11.1875 13.6585 11.2125 13.571 11.225C13.496 11.2375 13.4085 11.25 13.3335 11.25Z" fill="#F8FAFC"/>
<path d="M18.3335 11.2503C18.2585 11.2503 18.171 11.2378 18.096 11.2253C18.0085 11.2128 17.9335 11.1878 17.8585 11.1503C17.7835 11.1253 17.7085 11.0878 17.6335 11.0378C17.571 10.9878 17.5085 10.9378 17.446 10.8878C17.221 10.6503 17.0835 10.3378 17.0835 10.0003C17.0835 9.83775 17.121 9.67525 17.1835 9.52525C17.246 9.37525 17.3335 9.23775 17.446 9.11275C17.5085 9.06275 17.571 9.01275 17.6335 8.96275C17.7085 8.91275 17.7835 8.87525 17.8585 8.85025C17.9335 8.81275 18.0085 8.78775 18.096 8.77525C18.496 8.70025 18.921 8.82525 19.221 9.11275C19.446 9.35025 19.5835 9.67525 19.5835 10.0003C19.5835 10.0753 19.571 10.1628 19.5585 10.2503C19.546 10.3253 19.521 10.4003 19.4835 10.4753C19.4585 10.5503 19.421 10.6253 19.371 10.7003C19.321 10.7628 19.271 10.8253 19.221 10.8878C18.9835 11.1128 18.6585 11.2503 18.3335 11.2503Z" fill="#F8FAFC"/>
</svg>
