<svg width="23" height="24" viewBox="0 0 23 24" fill="none" xmlns="http://www.w3.org/2000/svg">
<path d="M1.3538 23.2496C1.1038 23.2496 0.866299 23.1496 0.691299 22.9746C0.441299 22.7246 0.353799 22.3496 0.466299 22.0121L4.8413 8.88712C4.9413 8.57462 5.2038 8.34962 5.5163 8.27462C5.8288 8.19962 6.1663 8.29962 6.3913 8.52462L15.1413 17.2746C15.3663 17.4996 15.4663 17.8371 15.3913 18.1496C15.3163 18.4621 15.0788 18.7246 14.7788 18.8246L1.6538 23.1996C1.5538 23.2371 1.4538 23.2496 1.3538 23.2496ZM6.1413 10.9246L2.8413 20.8371L12.7538 17.5371L6.1413 10.9246Z" fill="#F8FAFC"/>
<path d="M12.9661 10.8004C12.7286 10.8004 12.4911 10.7129 12.3036 10.5254C11.9411 10.1629 11.9411 9.56289 12.3036 9.20039C13.0036 8.50039 13.7911 8.53789 14.2661 8.55039C14.6786 8.57539 14.7161 8.55039 14.8161 8.45039C14.9161 8.35039 14.9286 8.31289 14.9161 7.90039C14.8911 7.42539 14.8661 6.63789 15.5536 5.95039C16.2536 5.25039 17.0411 5.28789 17.5161 5.30039C17.9286 5.31289 17.9661 5.30039 18.0661 5.20039C18.1661 5.10039 18.1786 5.05039 18.1661 4.65039C18.1411 4.17539 18.1161 3.38789 18.8161 2.68789C19.5161 1.98789 20.3036 2.02539 20.7786 2.03789C21.1911 2.06289 21.2286 2.03789 21.3286 1.93789C21.6911 1.57539 22.2911 1.57539 22.6536 1.93789C23.0161 2.30039 23.0161 2.90039 22.6536 3.26289C21.9536 3.96289 21.1661 3.92539 20.6911 3.91289C20.2786 3.90039 20.2411 3.91289 20.1411 4.01289C20.0411 4.11289 20.0286 4.16289 20.0411 4.56289C20.0661 5.03789 20.0911 5.82539 19.3911 6.52539C18.6911 7.22539 17.9036 7.18789 17.4411 7.17539C17.0286 7.16289 16.9911 7.17539 16.8911 7.27539C16.7911 7.37539 16.7786 7.41289 16.7911 7.82539C16.8161 8.30039 16.8411 9.08789 16.1536 9.77539C15.4536 10.4754 14.6786 10.4379 14.1911 10.4254C13.7786 10.4129 13.7411 10.4254 13.6411 10.5254C13.4536 10.7129 13.2161 10.8004 12.9661 10.8004Z" fill="#F8FAFC"/>
<path d="M9.479 8.25C8.9665 8.25 8.5415 7.825 8.5415 7.3125V4.8125C8.5415 3.6125 7.554 2.625 6.354 2.625C5.8415 2.625 5.4165 2.2 5.4165 1.6875C5.4165 1.175 5.8415 0.75 6.354 0.75C8.5915 0.75 10.4165 2.575 10.4165 4.8125V7.3125C10.4165 7.825 9.9915 8.25 9.479 8.25Z" fill="#F8FAFC"/>
<path d="M21.979 18.25C21.4665 18.25 21.0415 17.825 21.0415 17.3125C21.0415 16.1125 20.054 15.125 18.854 15.125H16.354C15.8415 15.125 15.4165 14.7 15.4165 14.1875C15.4165 13.675 15.8415 13.25 16.354 13.25H18.854C21.0915 13.25 22.9165 15.075 22.9165 17.3125C22.9165 17.825 22.4915 18.25 21.979 18.25Z" fill="#F8FAFC"/>
<path d="M12.604 3.87511C12.479 3.87511 12.3665 3.85011 12.2415 3.80011C12.129 3.75011 12.029 3.68761 11.9415 3.60011C11.7665 3.42511 11.6665 3.18761 11.6665 2.93761C11.6665 2.68761 11.7665 2.45011 11.9415 2.27511C12.204 2.01261 12.6165 1.92511 12.9665 2.07511C13.079 2.12511 13.179 2.18761 13.2665 2.27511C13.354 2.36261 13.4165 2.46261 13.4665 2.57511C13.5165 2.70011 13.5415 2.81261 13.5415 2.93761C13.5415 3.18761 13.4415 3.42511 13.2665 3.60011C13.179 3.68761 13.079 3.75011 12.9665 3.80011C12.8415 3.85011 12.729 3.87511 12.604 3.87511Z" fill="#F8FAFC"/>
<path d="M21.979 12C21.729 12 21.4915 11.9 21.3165 11.725C21.229 11.6375 21.1665 11.5375 21.1165 11.425C21.0665 11.3125 21.0415 11.1875 21.0415 11.0625C21.0415 10.8125 21.1415 10.575 21.3165 10.4C21.404 10.3125 21.504 10.25 21.6165 10.2C21.854 10.1 22.104 10.1 22.3415 10.2C22.454 10.25 22.554 10.3125 22.6415 10.4C22.8165 10.575 22.9165 10.8125 22.9165 11.0625C22.9165 11.1875 22.8915 11.3125 22.8415 11.425C22.7915 11.5375 22.729 11.6375 22.6415 11.725C22.4665 11.9 22.229 12 21.979 12Z" fill="#F8FAFC"/>
</svg>
