<svg width="24" height="24" viewBox="0 0 24 24" fill="none" xmlns="http://www.w3.org/2000/svg">
<path d="M21.0625 23.2498H17.3125C15.4125 23.2498 13.875 21.7123 13.875 19.8123V15.4373C13.875 15.2623 13.7375 15.1248 13.5625 15.1248H10.4375C10.2625 15.1248 10.125 15.2623 10.125 15.4373V19.8123C10.125 21.7123 8.5875 23.2498 6.6875 23.2498H2.9375C1.7375 23.2498 0.75 22.2623 0.75 21.0623V9.21231C0.75 8.49981 1.1 7.8248 1.6875 7.4248L10.75 1.0998C11.5 0.574805 12.5 0.574805 13.25 1.0998L22.3125 7.4123C22.9 7.8248 23.25 8.49981 23.25 9.21231V21.0623C23.25 22.2623 22.2625 23.2498 21.0625 23.2498ZM10.4375 13.2498H13.5625C14.7625 13.2498 15.75 14.2373 15.75 15.4373V19.8123C15.75 20.6748 16.45 21.3748 17.3125 21.3748H21.0625C21.2375 21.3748 21.375 21.2373 21.375 21.0623V9.21231C21.375 9.11231 21.325 9.01231 21.2375 8.94981L12.175 2.6373C12.0625 2.5623 11.925 2.5623 11.8125 2.6373L2.7625 8.9623C2.675 9.0123 2.625 9.11231 2.625 9.21231V21.0623C2.625 21.2373 2.7625 21.3748 2.9375 21.3748H6.6875C7.55 21.3748 8.25 20.6748 8.25 19.8123V15.4373C8.25 14.2373 9.2375 13.2498 10.4375 13.2498Z" fill="#F8FAFC"/>
</svg>
