<svg width="24" height="24" viewBox="0 0 24 24" fill="none" xmlns="http://www.w3.org/2000/svg">
<path d="M18.5625 23.25C15.8 23.25 13.5625 21.0125 13.5625 18.25C13.5625 15.4875 15.8 13.25 18.5625 13.25C21.325 13.25 23.5625 15.4875 23.5625 18.25C23.5625 21.0125 21.325 23.25 18.5625 23.25ZM18.5625 15.125C16.8375 15.125 15.4375 16.525 15.4375 18.25C15.4375 19.975 16.8375 21.375 18.5625 21.375C20.2875 21.375 21.6875 19.975 21.6875 18.25C21.6875 16.525 20.2875 15.125 18.5625 15.125Z" fill="#F8FAFC"/>
<path d="M21.0625 10.125H16.0625C14.8625 10.125 13.875 9.1375 13.875 7.9375V2.9375C13.875 1.7375 14.8625 0.75 16.0625 0.75H21.0625C22.2625 0.75 23.25 1.7375 23.25 2.9375V7.9375C23.25 9.1375 22.2625 10.125 21.0625 10.125ZM16.0625 2.625C15.8875 2.625 15.75 2.7625 15.75 2.9375V7.9375C15.75 8.1125 15.8875 8.25 16.0625 8.25H21.0625C21.2375 8.25 21.375 8.1125 21.375 7.9375V2.9375C21.375 2.7625 21.2375 2.625 21.0625 2.625H16.0625Z" fill="#F8FAFC"/>
<path d="M10.3874 10.1252H1.73745C1.39995 10.1252 1.08745 9.95019 0.924946 9.65019C0.762446 9.35019 0.749946 9.0127 0.924946 8.7252L5.24995 1.2252C5.58745 0.650195 6.53745 0.650195 6.87495 1.2252L11.1999 8.7252C11.3624 9.0127 11.3624 9.3752 11.1999 9.6627C11.0374 9.9502 10.7249 10.1252 10.3874 10.1252ZM3.34995 8.25019H8.76245L6.06245 3.5627L3.34995 8.25019Z" fill="#F8FAFC"/>
<path d="M10.3247 21.3373C10.6872 21.6998 10.6872 22.2998 10.3247 22.6623C10.1372 22.8498 9.89971 22.9373 9.64971 22.9373C9.41221 22.9373 9.17471 22.8498 8.98721 22.6623L6.06221 19.7373L3.13721 22.6623C2.94971 22.8498 2.71221 22.9373 2.47471 22.9373C2.22471 22.9373 1.98721 22.8498 1.79971 22.6623C1.43721 22.2998 1.43721 21.6998 1.79971 21.3373L4.73721 18.4123L1.79971 15.4748C1.43721 15.1123 1.43721 14.5123 1.79971 14.1498C2.17471 13.7873 2.76221 13.7873 3.13721 14.1498L6.06221 17.0748L8.98721 14.1498C9.36221 13.7873 9.94971 13.7873 10.3247 14.1498C10.6872 14.5123 10.6872 15.1123 10.3247 15.4748L7.39971 18.4123L10.3247 21.3373Z" fill="#F8FAFC"/>
</svg>
