<?xml version="1.0" encoding="UTF-8"?>
<svg id="space_background" data-name="space background" xmlns="http://www.w3.org/2000/svg" viewBox="0 0 18.96 18.89">
  <path d="m9.6,16.18c-1.64,0-3.28,0-4.92,0-.21,0-.43,0-.64-.02-.68-.04-1.11-.46-1.11-1.14-.02-1.42-.01-2.85-.01-4.27,0-.38,0-.76,0-1.14.01-.45.28-.75.64-.76.4-.01.67.26.67.74.02,1.54.01,3.07.03,4.61,0,.71-.08.6.61.6,3.23,0,6.45,0,9.68.01.27,0,.32-.1.32-.34,0-1.57,0-3.13.01-4.7,0-.24.1-.5.22-.71.13-.22.38-.27.63-.2.26.08.45.24.48.53,0,.08.02.16.02.24,0,1.78,0,3.56-.03,5.34,0,.73-.44,1.16-1.18,1.16-1.81.01-3.62,0-5.44,0,0,0,0,0,0,.01Z"/>
  <path d="m8.84,11.03c0-.36,0-.65,0-.94,0-2.1,0-4.2,0-6.3,0-.21.06-.45.17-.64.13-.23.37-.36.65-.3.29.07.5.23.54.55.02.15.03.31.03.46,0,2.29,0,4.59,0,6.88,0,.08.02.15.04.29.15-.12.27-.21.37-.31.35-.34.69-.7,1.05-1.03.4-.36.88-.27,1.09.19.14.31,0,.55-.21.77-.58.58-1.16,1.16-1.73,1.74-.24.24-.47.48-.72.72-.4.38-.71.39-1.1.02-.85-.83-1.69-1.67-2.51-2.52-.38-.4-.23-.92.27-1.1.27-.1.48.01.67.19.42.41.83.82,1.25,1.22.03.03.06.05.14.11Z"/>
</svg>