<svg fill="none" height="24" viewBox="0 0 24 24" width="24" xmlns="http://www.w3.org/2000/svg" xmlns:xlink="http://www.w3.org/1999/xlink"><linearGradient id="a" gradientUnits="userSpaceOnUse" x1="19.875" x2="3" y1="5.25" y2="21"><stop offset="0" stop-color="#5bd066"/><stop offset="1" stop-color="#27b43e"/></linearGradient><path clip-rule="evenodd" d="m12 23.25c5.799 0 10.5-4.701 10.5-10.5 0-5.79899-4.701-10.5-10.5-10.5-5.79899 0-10.5 4.70101-10.5 10.5 0 1.8832.49575 3.6505 1.36386 5.1787l-1.36386 5.3213 5.48615-1.2722c1.48988.8113 3.19805 1.2722 5.01385 1.2722zm0-1.6154c4.9068 0 8.8846-3.9778 8.8846-8.8846 0-4.90684-3.9778-8.88462-8.8846-8.88462-4.90684 0-8.88462 3.97778-8.88462 8.88462 0 1.8945.593 3.6506 1.6035 5.0927l-.7958 2.9842 3.03687-.7592c1.43207.9882 3.16845 1.5669 5.04005 1.5669z" fill="#bfc8d0" fill-rule="evenodd"/><path d="m21 12c0 4.9706-4.0294 9-9 9-1.8959 0-3.65484-.5862-5.10551-1.5873l-3.07631.7691.80614-3.023c-1.02363-1.4608-1.62432-3.2396-1.62432-5.1588 0-4.97056 4.02944-9 9-9 4.9706 0 9 4.02944 9 9z" fill="url(#a)"/><g fill="#fff"><path clip-rule="evenodd" d="m12 22.5c5.799 0 10.5-4.701 10.5-10.5 0-5.79899-4.701-10.5-10.5-10.5-5.79899 0-10.5 4.70101-10.5 10.5 0 1.8832.49575 3.6505 1.36386 5.1787l-1.36386 5.3213 5.48615-1.2722c1.48988.8113 3.19805 1.2722 5.01385 1.2722zm0-1.6154c4.9068 0 8.8846-3.9778 8.8846-8.8846 0-4.90684-3.9778-8.88462-8.8846-8.88462-4.90684 0-8.88462 3.97778-8.88462 8.88462 0 1.8945.593 3.6506 1.6035 5.0927l-.7958 2.9842 3.03687-.7592c1.43207.9882 3.16845 1.5669 5.04005 1.5669z" fill-rule="evenodd"/><path d="m9.37502 7.12504c-.24965-.50144-.63262-.45704-1.01951-.45704-.69144 0-1.76957.82821-1.76957 2.36959 0 1.26321.55665 2.64601 2.43237 4.71461 1.81019 1.9963 4.18869 3.029 6.16339 2.9939 1.9746-.0352 2.3808-1.7344 2.3808-2.3082 0-.2544-.1578-.3813-.2665-.4158-.6729-.3229-1.914-.9246-2.1964-1.0377-.2824-.113-.4298.0399-.5215.1231-.256.244-.7637.9632-.9375 1.125-.1738.1617-.4329.0799-.5407.0187-.3968-.1592-1.4727-.6378-2.3303-1.4691-1.06061-1.0281-1.12285-1.3819-1.32267-1.6967-.15986-.2519-.04256-.4065.01598-.474.22851-.2637.54409-.67079.68559-.87308.1415-.2023.0291-.50943-.0383-.70073-.28987-.82271-.53546-1.51141-.73518-1.91255z"/></g></svg>