<svg width="13" height="14" viewBox="0 0 13 14" fill="none" xmlns="http://www.w3.org/2000/svg">
<path d="M6.5 2.46094C7.17848 2.46094 7.73047 1.90895 7.73047 1.23047C7.73047 0.551988 7.17848 0 6.5 0C5.82152 0 5.26953 0.551988 5.26953 1.23047C5.26953 1.90895 5.82152 2.46094 6.5 2.46094ZM7.32031 11.5391H5.67969C5.45317 11.5391 5.26953 11.7227 5.26953 11.9492V12.7695C5.26953 13.448 5.82152 14 6.5 14C7.17848 14 7.73047 13.448 7.73047 12.7695V11.9492C7.73047 11.7227 7.54683 11.5391 7.32031 11.5391Z" fill="url(#paint0_linear_4_1351)"/>
<path d="M12.2422 11.5391C11.5637 11.5391 11.0117 10.9871 11.0117 10.3086V6.32863C11.0117 3.86001 9.11548 1.65922 6.52734 1.6404C3.98897 1.62197 1.98828 3.69017 1.98828 6.15234V10.3086C1.98828 10.9871 1.43629 11.5391 0.757812 11.5391C0.531297 11.5391 0.347656 11.7227 0.347656 11.9492C0.347656 12.1757 0.531297 12.3594 0.757812 12.3594H12.2422C12.4687 12.3594 12.6523 12.1757 12.6523 11.9492C12.6523 11.7227 12.4687 11.5391 12.2422 11.5391Z" fill="url(#paint1_linear_4_1351)"/>
<defs>
<linearGradient id="paint0_linear_4_1351" x1="6.5" y1="14" x2="6.5" y2="0" gradientUnits="userSpaceOnUse">
<stop stop-color="#A3D8FF"/>
<stop offset="1" stop-color="#D6EEFF"/>
</linearGradient>
<linearGradient id="paint1_linear_4_1351" x1="6.5" y1="12.3594" x2="6.5" y2="1.64028" gradientUnits="userSpaceOnUse">
<stop stop-color="#5558FF"/>
<stop offset="1" stop-color="#00C0FF"/>
</linearGradient>
</defs>
</svg>
