<svg fill="none" height="17" viewBox="0 0 15 17" width="15" xmlns="http://www.w3.org/2000/svg" xmlns:xlink="http://www.w3.org/1999/xlink"><linearGradient id="a" gradientUnits="userSpaceOnUse" x1="3.45713" x2="3.45713" y1="16.3707" y2="8.99609"><stop offset="0" stop-color="#ffa3f7"/><stop offset="1" stop-color="#ffd6ff"/></linearGradient><linearGradient id="b" gradientUnits="userSpaceOnUse" x1="8.65411" x2="8.65411" y1="13.9083" y2=".371094"><stop offset="0" stop-color="#a93aff"/><stop offset="1" stop-color="#ff81ff"/></linearGradient><clipPath id="c"><path d="m0 0h15v16h-15z" transform="matrix(-1 0 0 1 15 .371094)"/></clipPath><g clip-path="url(#c)"><path d="m.0948331 15.6113 4.7953669-6.43755c.07811-.10482.19398-.16938.31928-.17716.12876-.00594.24806.04165.33645.1364l1.23943 1.32201c.08842.0948.13562.2252.12788.3589-.00685.1337-.06779.2573-.16652.3406l-6.034778 5.1155c-.174228.1469-.425683.1318-.582803-.0366-.1579097-.168-.1724993-.4353-.0343059-.6221z" fill="url(#a)"/><path d="m2.43698 6.48012 1.24799-1.33118c1.09435-1.16547 2.81267-1.2671 4.01516-.30807l2.50477-2.67128-.93062-.99953c-.17165-.18403-.16995-.480655.00173-.663311.17247-.182625.45056-.179875.62136.002312.08812.094 5.06103 5.397749 4.97303 5.304089.1716.18266.1734.47929.0017.66332-.1721.18453-.4499.18334-.6214.00228l-.9373-.99288-2.5045 2.6715c.9012 1.28313.8051 3.11643-.2884 4.28233l-1.24798 1.3312c-.08584.0916-.19828.1374-.31069.1374s-.22488-.0458-.31069-.1374l-6.21416-6.62793c-.08241-.08791-.12876-.20691-.12876-.33141s.04635-.24353.12876-.33144z" fill="url(#b)"/></g></svg>