<svg width="40" height="41" viewBox="0 0 40 41" fill="none" xmlns="http://www.w3.org/2000/svg">
<g clip-path="url(#clip0_5085_108117)">
<path d="M0.251913 38.2451L13.0396 22.1512C13.2478 21.8891 13.5568 21.7277 13.891 21.7083C14.2343 21.6934 14.5525 21.8124 14.7882 22.0493L18.0933 25.3544C18.3291 25.5912 18.455 25.9174 18.4343 26.2515C18.4161 26.5857 18.2536 26.8947 17.9903 27.103L1.89754 39.8919C1.43293 40.259 0.762381 40.2214 0.343397 39.8003C-0.0776967 39.3804 -0.116602 38.712 0.251913 38.2451V38.2451Z" fill="#E4E7EC"/>
<path d="M6.49861 15.4171L9.82657 12.0891C12.7449 9.17547 17.327 8.9214 20.5337 11.319L27.2131 4.64078L24.7314 2.14195C24.2737 1.68187 24.2782 0.940309 24.736 0.483669C25.1959 0.0271063 25.9375 0.0339813 26.393 0.48945C26.628 0.72445 39.8891 13.9838 39.6544 13.7497C40.1121 14.2063 40.1167 14.9479 39.659 15.408C39.2 15.8693 38.4592 15.8663 38.0019 15.4137L35.5025 12.9315L28.8238 19.6102C31.227 22.818 30.9706 27.4014 28.0547 30.3162L24.7267 33.6441C24.4978 33.873 24.198 33.9875 23.8982 33.9875C23.5984 33.9875 23.2985 33.873 23.0697 33.6441L6.49861 17.0742C6.27884 16.8544 6.15525 16.5569 6.15525 16.2457C6.15525 15.9344 6.27884 15.6369 6.49861 15.4171V15.4171Z" fill="#D0D5DD"/>
</g>
<defs>
<clipPath id="clip0_5085_108117">
<rect width="40" height="40" fill="white" transform="matrix(-1 0 0 1 40 0.144531)"/>
</clipPath>
</defs>
</svg>
