<svg width="17" height="14" viewBox="0 0 17 14" fill="none" xmlns="http://www.w3.org/2000/svg">
<path d="M0.75 10.4271V2.625C0.75 1.67728 1.52103 0.90625 2.46875 0.90625H15.0312C15.979 0.90625 16.75 1.67728 16.75 2.625V10.5915L0.75 10.4271Z" fill="#E4E7EC"/>
<path d="M7.5 5.90625C6.63844 5.90625 5.9375 5.20531 5.9375 4.34375C5.9375 3.48219 6.63844 2.78125 7.5 2.78125C8.36156 2.78125 9.0625 3.48219 9.0625 4.34375C9.0625 5.20531 8.36156 5.90625 7.5 5.90625ZM2.46875 13.0938H15.0312C15.979 13.0938 16.75 12.3227 16.75 11.375V10.5915L12.2693 3.6215C12.0848 3.33447 11.6652 3.33447 11.4807 3.6215L7.51844 9.78503L4.75 6.09375C4.5625 5.84375 4.1875 5.84375 4 6.09375L0.75 10.4271V11.375C0.75 12.3227 1.52103 13.0938 2.46875 13.0938V13.0938Z" fill="#667085"/>
</svg>
