<svg width="17" height="16" viewBox="0 0 17 16" fill="none" xmlns="http://www.w3.org/2000/svg">
<path d="M3.77815 8.33146L1.71105 10.3986C0.429648 11.68 0.429648 13.7576 1.71105 15.0389C2.99246 16.3203 5.07005 16.3203 6.35143 15.0389L8.41852 12.9718C9.69993 11.6904 9.69993 9.61284 8.41852 8.33146C7.13715 7.05005 5.05955 7.05005 3.77815 8.33146ZM7.09271 11.646L5.02562 13.7131C4.47731 14.2614 3.58521 14.2614 3.03687 13.7131C2.48855 13.1648 2.48855 12.2727 3.03687 11.7244L5.10396 9.65727C5.65227 9.10893 6.54437 9.10893 7.09271 9.65727C7.64102 10.2056 7.64102 11.0977 7.09271 11.646ZM15.7889 0.961055C14.5075 -0.320352 12.4299 -0.320352 11.1486 0.961055L9.08146 3.02815C7.80005 4.30955 7.80005 6.38715 9.08146 7.66852C10.3629 8.94993 12.4405 8.94993 13.7218 7.66852L15.7889 5.60143C17.0703 4.32002 17.0703 2.24243 15.7889 0.961055ZM14.4631 4.27562L12.396 6.34271C11.8477 6.89102 10.9556 6.89102 10.4073 6.34271C9.85896 5.7944 9.85896 4.9023 10.4073 4.35396L12.4744 2.28687C13.0227 1.73852 13.9148 1.73852 14.4631 2.28687C15.0114 2.83518 15.0114 3.72727 14.4631 4.27562Z" fill="#667085"/>
<path d="M12.3963 4.3533C11.8471 3.80411 10.9568 3.80411 10.4076 4.3533L5.10427 9.65661C4.55509 10.2058 4.55509 11.0962 5.10427 11.6454C5.65346 12.1945 6.54384 12.1945 7.09302 11.6454L12.3963 6.34205C12.9455 5.79286 12.9455 4.90248 12.3963 4.3533Z" fill="#C9CFD9"/>
</svg>
