<svg width="17" height="16" viewBox="0 0 17 16" fill="none" xmlns="http://www.w3.org/2000/svg">
<path d="M8.75 16C4.32581 16 0.75 12.4253 0.75 8C0.75 3.57578 4.32469 0 8.75 0C13.1742 0 16.75 3.57466 16.75 8C16.75 12.4242 13.1753 16 8.75 16Z" fill="#667085"/>
<path d="M5.9375 11.75V4.24999C5.9375 4.07712 6.03266 3.91827 6.18506 3.83671C6.33747 3.75515 6.52244 3.76409 6.66625 3.85996L12.2913 7.60996C12.4217 7.6969 12.5 7.84324 12.5 7.99999C12.5 8.15674 12.4217 8.30309 12.2913 8.39002L6.66625 12.14C6.35828 12.3454 5.9375 12.1273 5.9375 11.75Z" fill="#E4E7EC"/>
</svg>
