<svg width="13" height="16" viewBox="0 0 13 16" fill="none" xmlns="http://www.w3.org/2000/svg">
<path d="M3.9375 10.7812H11.4375V5.15625H3.9375V10.7812ZM12.7031 2.95309L9.89059 0.140594C9.80625 0.046875 9.68438 0 9.5625 0L8.625 4.21875L12.8438 3.28125C12.8438 3.15937 12.7969 3.0375 12.7031 2.95309ZM10.5 13.125H3.46875V2.34375C3.46875 2.08466 3.25909 1.875 3 1.875H1.125C0.865906 1.875 0.65625 2.08466 0.65625 2.34375V15.5312C0.65625 15.7903 0.865906 16 1.125 16H10.5C10.7591 16 10.9688 15.7903 10.9688 15.5312V13.5938C10.9688 13.3347 10.7591 13.125 10.5 13.125Z" fill="#667085"/>
<path d="M10.0312 3.28125C9.76872 3.28125 9.5625 3.07497 9.5625 2.8125V0H3C2.73747 0 2.53125 0.206219 2.53125 0.46875V13.5938C2.53125 13.8562 2.73747 14.0625 3 14.0625H12.375C12.6375 14.0625 12.8438 13.8562 12.8438 13.5938V3.28125H10.0312ZM10.5 10.3125H4.875C4.61247 10.3125 4.40625 10.1062 4.40625 9.84375C4.40625 9.58122 4.61247 9.375 4.875 9.375H10.5C10.7625 9.375 10.9688 9.58122 10.9688 9.84375C10.9688 10.1062 10.7625 10.3125 10.5 10.3125ZM10.5 8.4375H4.875C4.61247 8.4375 4.40625 8.23122 4.40625 7.96875C4.40625 7.70622 4.61247 7.5 4.875 7.5H10.5C10.7625 7.5 10.9688 7.70622 10.9688 7.96875C10.9688 8.23122 10.7625 8.4375 10.5 8.4375ZM10.5 6.5625H4.875C4.61247 6.5625 4.40625 6.35622 4.40625 6.09375C4.40625 5.83122 4.61247 5.625 4.875 5.625H10.5C10.7625 5.625 10.9688 5.83122 10.9688 6.09375C10.9688 6.35622 10.7625 6.5625 10.5 6.5625Z" fill="#E4E7EC"/>
</svg>
