<svg width="126" height="94" viewBox="0 0 126 94" fill="none" xmlns="http://www.w3.org/2000/svg">
<defs>
<linearGradient id="paint0_linear_1_1009" x1="9.35156" y1="118" x2="129.18" y2="36.587" gradientUnits="userSpaceOnUse">
<stop offset="0.195142" stop-color="#FB923C"/>
<stop offset="0.740805" stop-color="#F46806"/>
</linearGradient>
<linearGradient id="paint1_linear_1_1009" x1="63" y1="8.20513" x2="63" y2="-9.53674e-07" gradientUnits="userSpaceOnUse">
<stop stop-color="#D95E08"/>
<stop offset="1" stop-color="#FA7F19"/>
</linearGradient>
</defs>
<mask id="path-1-inside-1_1_1009" fill="white">
<path d="M0 8H126V118H0V8Z"/>
</mask>
<path d="M0 8H126V118H0V8Z" fill="url(#paint0_linear_1_1009)"/>
<path d="M0 8V7H-1V8H0ZM126 8H127V7H126V8ZM0 9H126V7H0V9ZM125 8V118H127V8H125ZM1 118V8H-1V118H1Z" fill="#FDBA74" mask="url(#path-1-inside-1_1_1009)"/>
<path d="M0 8.20513H126L112.737 -9.53674e-07H56.3684H0V8.20513Z" fill="url(#paint1_linear_1_1009)"/>
<path d="M0 8.20513H126L112.737 -9.53674e-07H56.3684H0V8.20513Z" stroke="#EA580C"/>
</svg>
