<svg width="20" height="24" viewBox="0 0 20 24" fill="none" xmlns="http://www.w3.org/2000/svg">
<path d="M15.429 13.7141H4.00021V24L9.71462 22.2857L15.429 24V13.7141Z" fill="#FF3D00"/>
<path d="M15.429 16.1896L15.145 16.1958C14.1004 16.2176 13.1541 16.7644 12.6118 17.6593L12.4512 17.925C12.2427 18.2696 11.8032 18.3879 11.4512 18.1942L11.1781 18.0433C10.7198 17.7913 10.2175 17.665 9.71519 17.665C9.21232 17.665 8.70945 17.7913 8.25059 18.0439L7.98029 18.193C7.62772 18.3867 7.18714 18.269 6.97856 17.9245L6.81799 17.6587C6.27683 16.7644 5.32995 16.2176 4.28536 16.1958L4.00021 16.1896V18.4759L4.23736 18.481C4.49508 18.4862 4.7288 18.621 4.86252 18.8422L5.02366 19.1079C5.86882 20.5039 7.65 20.9822 9.08375 20.1948L9.35518 20.0451C9.58147 19.9211 9.85119 19.9211 10.0752 20.0445L10.3489 20.1954C10.8146 20.4514 11.3175 20.5736 11.8135 20.5736C12.841 20.5736 13.8376 20.0496 14.4079 19.1068L14.5679 18.8416C14.7016 18.6205 14.9359 18.4856 15.1942 18.4805L15.429 18.4753V16.1896Z" fill="#DD2C00"/>
<path d="M19.0432 10.626C18.7306 10.0585 18.7306 9.36995 19.0432 8.80251L19.1929 8.53051C19.6815 7.64192 19.3832 6.52532 18.5146 6.00017L18.2489 5.83902C17.6946 5.50302 17.3506 4.90758 17.3368 4.26014L17.33 3.94927C17.3094 2.93497 16.4923 2.11781 15.478 2.09723L15.1671 2.09038C14.5191 2.07723 13.9231 1.73266 13.5882 1.17836L13.4271 0.912638C12.9019 0.0446207 11.7853 -0.254243 10.8967 0.234339L10.6247 0.384056C10.0573 0.696634 9.36869 0.696634 8.80125 0.384056L8.52981 0.23491C7.64122 -0.253671 6.5252 0.0451921 6.00005 0.91321L5.8389 1.17893C5.5029 1.73323 4.90745 2.07723 4.26001 2.09095L3.94915 2.09781C2.93484 2.11838 2.11768 2.93554 2.09711 3.94984L2.09025 4.26071C2.07711 4.90872 1.73253 5.50473 1.17824 5.8396L0.912516 6.00074C0.0450702 6.5259 -0.254365 7.64249 0.234217 8.53108L0.383934 8.80309C0.696512 9.37053 0.696512 10.0591 0.383934 10.6266L0.234788 10.898C-0.253793 11.7866 0.0444985 12.9032 0.913087 13.4283L1.17881 13.5895C1.7331 13.9255 2.07711 14.5209 2.09083 15.1684L2.09768 15.4792C2.11825 16.4935 2.93541 17.3107 3.94972 17.3313L4.26058 17.3381C4.9086 17.3513 5.50461 17.6958 5.83947 18.2501L6.00062 18.5159C6.52577 19.3833 7.64237 19.6827 8.53096 19.1942L8.80296 19.0444C9.3704 18.7319 10.059 18.7319 10.6264 19.0444L10.8984 19.1942C11.787 19.6827 12.9036 19.3844 13.4288 18.5159L13.5899 18.2501C13.9259 17.6958 14.5214 17.3518 15.1688 17.3381L15.4797 17.3313C16.494 17.3107 17.3111 16.4935 17.3317 15.4792L17.3386 15.1684C17.3517 14.5203 17.6963 13.9243 18.2506 13.5895L18.5163 13.4283C19.3837 12.9032 19.6832 11.7866 19.1946 10.898L19.0432 10.626Z" fill="#FFEFD3"/>
<path d="M9.71397 3.38411C8.03519 3.38411 6.42517 4.051 5.23809 5.23808C4.05102 6.42515 3.38412 8.03517 3.38412 9.71395C3.38412 11.3927 4.05102 13.0028 5.23809 14.1898C6.42517 15.3769 8.03519 16.0438 9.71397 16.0438C11.3927 16.0438 13.0028 15.3769 14.1898 14.1898C15.3769 13.0028 16.0438 11.3927 16.0438 9.71395C16.0438 8.03517 15.3769 6.42515 14.1898 5.23808C13.0028 4.051 11.3927 3.38411 9.71397 3.38411Z" fill="#FFB300"/>
</svg>
