<svg width="17" height="16" viewBox="0 0 17 16" fill="none" xmlns="http://www.w3.org/2000/svg">
<defs>
<linearGradient id="paint0_linear_0_936" x1="8.4889" y1="-0.0108643" x2="8.4889" y2="16.0108" gradientUnits="userSpaceOnUse">
<stop stop-color="#FACC15"/>
<stop offset="1" stop-color="#D4A207"/>
</linearGradient>
</defs>
<mask id="path-1-inside-1_0_936" fill="white">
<path fill-rule="evenodd" clip-rule="evenodd" d="M4.72628 0.0623057C4.5416 0.174906 4.50024 0.284946 4.50012 0.664066L4.5 0.999986L2.66408 1.00011C0.278796 1.00027 0.392396 0.935106 0.548236 2.21363C0.951436 5.52199 2.66036 7.82435 5.09996 8.34615C5.26892 8.38227 5.28936 8.39747 5.4976 8.64203C5.83356 9.03659 6.29796 9.39135 6.77724 9.61959L7.0076 9.72927L6.99108 10.7631C6.97368 11.8522 6.9576 11.9919 6.8058 12.375C6.541 13.0431 6.0804 13.4813 5.29648 13.8106C4.45836 14.1627 4.49996 14.1007 4.50012 14.9968C4.50024 15.7502 4.51424 15.8083 4.72628 15.9377C4.88632 16.0352 12.1137 16.0352 12.2737 15.9377C12.4853 15.8087 12.4998 15.7492 12.4999 15.0063C12.5 14.1167 12.5208 14.1513 11.815 13.8627C11.0675 13.557 10.6666 13.2389 10.3536 12.7031C10.0684 12.2149 10.0286 11.9906 10.0089 10.7631L9.9924 9.72927L10.2258 9.61843C10.7049 9.39095 11.2226 8.99099 11.5384 8.60439C11.7066 8.39859 11.7284 8.38287 11.8978 8.34663C13.7897 7.94175 15.268 6.46299 15.9931 4.24999C16.3962 3.01963 16.6167 1.51995 16.4377 1.22627C16.2935 0.989746 16.3908 1.00023 14.3359 1.00011L12.5 0.999986L12.4999 0.664066C12.4998 0.284946 12.4584 0.174906 12.2737 0.0623057C12.1137 -0.0352543 4.88632 -0.0352543 4.72628 0.0623057ZM4.50816 4.30467C4.51876 6.56839 4.52016 6.61375 4.58784 6.85651C4.6744 7.16703 4.68732 7.16171 4.31736 6.96819C2.85748 6.20475 1.79296 4.35711 1.57648 2.21091L1.5552 1.99999H3.02628H4.49736L4.50816 4.30467ZM15.4231 2.17967C15.149 4.45619 14.02 6.36343 12.5506 7.03211C12.3173 7.13823 12.3293 7.15355 12.4122 6.85651C12.4798 6.61375 12.4812 6.56839 12.4918 4.30467L12.5026 1.99999H13.9737H15.4447L15.4231 2.17967Z"/>
</mask>
<path fill-rule="evenodd" clip-rule="evenodd" d="M4.72628 0.0623057C4.5416 0.174906 4.50024 0.284946 4.50012 0.664066L4.5 0.999986L2.66408 1.00011C0.278796 1.00027 0.392396 0.935106 0.548236 2.21363C0.951436 5.52199 2.66036 7.82435 5.09996 8.34615C5.26892 8.38227 5.28936 8.39747 5.4976 8.64203C5.83356 9.03659 6.29796 9.39135 6.77724 9.61959L7.0076 9.72927L6.99108 10.7631C6.97368 11.8522 6.9576 11.9919 6.8058 12.375C6.541 13.0431 6.0804 13.4813 5.29648 13.8106C4.45836 14.1627 4.49996 14.1007 4.50012 14.9968C4.50024 15.7502 4.51424 15.8083 4.72628 15.9377C4.88632 16.0352 12.1137 16.0352 12.2737 15.9377C12.4853 15.8087 12.4998 15.7492 12.4999 15.0063C12.5 14.1167 12.5208 14.1513 11.815 13.8627C11.0675 13.557 10.6666 13.2389 10.3536 12.7031C10.0684 12.2149 10.0286 11.9906 10.0089 10.7631L9.9924 9.72927L10.2258 9.61843C10.7049 9.39095 11.2226 8.99099 11.5384 8.60439C11.7066 8.39859 11.7284 8.38287 11.8978 8.34663C13.7897 7.94175 15.268 6.46299 15.9931 4.24999C16.3962 3.01963 16.6167 1.51995 16.4377 1.22627C16.2935 0.989746 16.3908 1.00023 14.3359 1.00011L12.5 0.999986L12.4999 0.664066C12.4998 0.284946 12.4584 0.174906 12.2737 0.0623057C12.1137 -0.0352543 4.88632 -0.0352543 4.72628 0.0623057ZM4.50816 4.30467C4.51876 6.56839 4.52016 6.61375 4.58784 6.85651C4.6744 7.16703 4.68732 7.16171 4.31736 6.96819C2.85748 6.20475 1.79296 4.35711 1.57648 2.21091L1.5552 1.99999H3.02628H4.49736L4.50816 4.30467ZM15.4231 2.17967C15.149 4.45619 14.02 6.36343 12.5506 7.03211C12.3173 7.13823 12.3293 7.15355 12.4122 6.85651C12.4798 6.61375 12.4812 6.56839 12.4918 4.30467L12.5026 1.99999H13.9737H15.4447L15.4231 2.17967Z" fill="url(#paint0_linear_0_936)"/>
<path d="M4.72628 0.0623057L4.20577 -0.791551L4.2057 -0.79151L4.72628 0.0623057ZM4.50012 0.664066L5.50012 0.664423V0.664382L4.50012 0.664066ZM4.5 0.999986L4.50006 1.99999L5.49964 1.99992L5.5 1.00034L4.5 0.999986ZM2.66408 1.00011L2.66401 0.000105817H2.66401L2.66408 1.00011ZM0.548236 2.21363L1.54089 2.09265L1.54089 2.09263L0.548236 2.21363ZM5.09996 8.34615L4.8908 9.32403L4.8909 9.32405L5.09996 8.34615ZM5.4976 8.64203L6.25898 7.99372L6.25898 7.99372L5.4976 8.64203ZM6.77724 9.61959L6.34729 10.5224L6.34735 10.5225L6.77724 9.61959ZM7.0076 9.72927L8.00747 9.74524L8.01774 9.10266L7.43748 8.82638L7.0076 9.72927ZM6.99108 10.7631L5.9912 10.7471L5.9912 10.7471L6.99108 10.7631ZM6.8058 12.375L7.73545 12.7434L7.73548 12.7433L6.8058 12.375ZM5.29648 13.8106L5.68381 14.7326L5.68382 14.7326L5.29648 13.8106ZM4.50012 14.9968L5.50012 14.9966V14.9966L4.50012 14.9968ZM4.72628 15.9377L4.20559 16.7914L4.20577 16.7915L4.72628 15.9377ZM12.2737 15.9377L12.7942 16.7915L12.7943 16.7915L12.2737 15.9377ZM12.4999 15.0063L11.4999 15.0061V15.0061L12.4999 15.0063ZM11.815 13.8627L11.4364 14.7883L11.4365 14.7883L11.815 13.8627ZM10.3536 12.7031L9.49014 13.2075L9.49014 13.2075L10.3536 12.7031ZM10.0089 10.7631L9.00904 10.779L9.00904 10.7791L10.0089 10.7631ZM9.9924 9.72927L9.56342 8.82595L8.98224 9.10195L8.99252 9.74524L9.9924 9.72927ZM10.2258 9.61843L9.79687 8.71509L9.79682 8.71511L10.2258 9.61843ZM11.5384 8.60439L12.3129 9.23706L12.3129 9.23703L11.5384 8.60439ZM11.8978 8.34663L12.107 9.32449L12.1071 9.32448L11.8978 8.34663ZM15.9931 4.24999L16.9434 4.56135V4.56134L15.9931 4.24999ZM16.4377 1.22627L17.2915 0.705729L17.2915 0.70571L16.4377 1.22627ZM14.3359 1.00011L14.3359 2.00011H14.3359L14.3359 1.00011ZM12.5 0.999986L11.5 1.00034L11.5004 1.99992L12.4999 1.99999L12.5 0.999986ZM12.4999 0.664066L11.4999 0.664382V0.664422L12.4999 0.664066ZM12.2737 0.0623057L12.7943 -0.79151L12.7942 -0.791551L12.2737 0.0623057ZM4.50816 4.30467L5.50815 4.29998V4.29998L4.50816 4.30467ZM4.58784 6.85651L5.55111 6.58799L5.5511 6.58795L4.58784 6.85651ZM4.31736 6.96819L4.78086 6.08209L4.78076 6.08204L4.31736 6.96819ZM1.57648 2.21091L2.57143 2.11055L2.57143 2.11052L1.57648 2.21091ZM1.5552 1.99999V0.999986H0.449228L0.560247 2.10037L1.5552 1.99999ZM4.49736 1.99999L5.49734 1.9953L5.49268 0.999986H4.49736V1.99999ZM15.4231 2.17967L14.4303 2.06009L14.4302 2.06015L15.4231 2.17967ZM12.5506 7.03211L12.9646 7.94235L12.9647 7.9423L12.5506 7.03211ZM12.4122 6.85651L13.3754 7.12514L13.3754 7.12506L12.4122 6.85651ZM12.4918 4.30467L11.4918 4.29998V4.29998L12.4918 4.30467ZM12.5026 1.99999V0.999986H11.5073L11.5026 1.9953L12.5026 1.99999ZM15.4447 1.99999L16.4375 2.11956L16.5724 0.999986H15.4447V1.99999ZM4.2057 -0.79151C3.99852 -0.66519 3.7463 -0.456776 3.60791 -0.0885685C3.50346 0.189362 3.50017 0.479712 3.50012 0.663749L5.50012 0.664382C5.50014 0.583065 5.50261 0.544433 5.5042 0.529067C5.50576 0.514035 5.50362 0.552352 5.48006 0.61505C5.45244 0.688533 5.40701 0.76524 5.34508 0.831788C5.3174 0.861534 5.2924 0.882774 5.27483 0.89635C5.25784 0.909472 5.24692 0.91608 5.24685 0.916122L4.2057 -0.79151ZM3.50012 0.663709L3.5 0.999629L5.5 1.00034L5.50012 0.664423L3.50012 0.663709ZM4.49993 -1.41934e-05L2.66401 0.000105817L2.66414 2.00011L4.50006 1.99999L4.49993 -1.41934e-05ZM2.66401 0.000105817C2.08819 0.000144443 1.61289 -0.00419029 1.26222 0.0109211C0.963242 0.0238048 0.520331 0.0509083 0.155719 0.260027C-0.0711969 0.390172 -0.262803 0.584133 -0.384052 0.841037C-0.494005 1.074 -0.517692 1.29958 -0.521972 1.45758C-0.529331 1.72925 -0.474783 2.0855 -0.444417 2.33462L1.54089 2.09263C1.51885 1.91179 1.5033 1.7999 1.49049 1.68427C1.47816 1.57299 1.47688 1.52687 1.47729 1.51174C1.47772 1.49605 1.47925 1.57893 1.42462 1.69467C1.3587 1.83435 1.25253 1.93656 1.15075 1.99493C1.07185 2.04019 1.0271 2.04088 1.07702 2.03218C1.12219 2.0243 1.20477 2.01525 1.34832 2.00907C1.64234 1.9964 2.04733 2.00015 2.66414 2.00011L2.66401 0.000105817ZM-0.444419 2.3346C-0.0112557 5.88882 1.88236 8.68056 4.8908 9.32403L5.30911 7.36826C3.43835 6.96813 1.91413 5.15515 1.54089 2.09265L-0.444419 2.3346ZM4.8909 9.32405C4.90889 9.3279 4.91273 9.32891 4.91095 9.32846C4.90825 9.32777 4.89182 9.32356 4.86794 9.31503C4.84252 9.30596 4.81105 9.29289 4.77651 9.27456C4.74186 9.25618 4.71189 9.23665 4.6871 9.2182C4.64254 9.18505 4.62241 9.16077 4.63916 9.17878C4.65577 9.19664 4.68235 9.22708 4.73622 9.29033L6.25898 7.99372C6.18426 7.90597 6.04531 7.73591 5.88099 7.61364C5.64053 7.43472 5.40342 7.38842 5.30901 7.36824L4.8909 9.32405ZM4.73621 9.29033C5.16576 9.7948 5.74404 10.2352 6.34729 10.5224L7.20719 8.71673C6.85188 8.54753 6.50135 8.27837 6.25898 7.99372L4.73621 9.29033ZM6.34735 10.5225L6.57771 10.6322L7.43748 8.82638L7.20712 8.7167L6.34735 10.5225ZM6.00772 9.71329L5.9912 10.7471L7.99095 10.779L8.00747 9.74524L6.00772 9.71329ZM5.9912 10.7471C5.98224 11.3079 5.97371 11.5601 5.95538 11.7196C5.94343 11.8235 5.93199 11.8656 5.87611 12.0066L7.73548 12.7433C7.8314 12.5013 7.9039 12.282 7.94229 11.948C7.9743 11.6695 7.98251 11.3074 7.99095 10.779L5.9912 10.7471ZM5.87614 12.0066C5.72836 12.3795 5.49417 12.6429 4.90913 12.8887L5.68382 14.7326C6.66662 14.3196 7.35364 13.7068 7.73545 12.7434L5.87614 12.0066ZM4.90914 12.8887C4.72978 12.964 4.52234 13.0475 4.36669 13.1264C4.20253 13.2095 3.94461 13.358 3.75371 13.6423C3.56147 13.9286 3.5228 14.2248 3.50927 14.4102C3.4966 14.5838 3.50008 14.8066 3.50012 14.997L5.50012 14.9966C5.50009 14.8743 5.49943 14.7905 5.4999 14.7087C5.50035 14.6297 5.50189 14.5842 5.50397 14.5557C5.50878 14.4897 5.51206 14.6114 5.41417 14.7572C5.31762 14.901 5.20644 14.9429 5.2702 14.9107C5.29728 14.8969 5.34022 14.8772 5.41422 14.8456C5.49064 14.813 5.56977 14.7805 5.68381 14.7326L4.90914 12.8887ZM3.50012 14.9969C3.50017 15.3152 3.49671 15.6658 3.56143 15.935C3.60577 16.1195 3.68997 16.3198 3.85052 16.5024C3.9896 16.6605 4.14481 16.7543 4.20559 16.7914L5.24696 15.0839C5.22937 15.0732 5.23716 15.0772 5.25395 15.0897C5.27337 15.1042 5.31091 15.1345 5.35248 15.1817C5.39603 15.2312 5.43269 15.2866 5.46074 15.3442C5.48743 15.399 5.50026 15.4436 5.50602 15.4675C5.51145 15.4901 5.51161 15.4987 5.51012 15.4849C5.50868 15.4714 5.50663 15.446 5.50485 15.4026C5.50116 15.3125 5.50015 15.1872 5.50012 14.9966L3.50012 14.9969ZM4.20577 16.7915C4.34569 16.8768 4.47574 16.9071 4.496 16.9122C4.54272 16.9239 4.58308 16.9308 4.60784 16.9346C4.65897 16.9426 4.70963 16.9477 4.74959 16.9511C4.83293 16.9583 4.93574 16.964 5.04711 16.9688C5.27313 16.9785 5.57918 16.9862 5.93322 16.9924C6.64357 17.0047 7.5732 17.0108 8.5 17.0108C9.42679 17.0108 10.3564 17.0047 11.0668 16.9924C11.4208 16.9862 11.7269 16.9785 11.9529 16.9688C12.0642 16.964 12.1671 16.9583 12.2504 16.9511C12.2904 16.9477 12.341 16.9426 12.3922 16.9346C12.4169 16.9308 12.4573 16.9239 12.504 16.9122C12.5243 16.9071 12.6543 16.8768 12.7942 16.7915L11.7532 15.0838C11.8881 15.0016 12.0097 14.9742 12.0182 14.9721C12.0531 14.9634 12.0783 14.9594 12.0847 14.9584C12.0991 14.9562 12.1001 14.9566 12.0783 14.9585C12.0381 14.962 11.9691 14.9662 11.8672 14.9706C11.6667 14.9792 11.3806 14.9866 11.0321 14.9927C10.3373 15.0048 9.42005 15.0108 8.5 15.0108C7.57994 15.0108 6.66272 15.0048 5.96793 14.9927C5.6194 14.9866 5.3333 14.9792 5.13281 14.9706C5.03093 14.9662 4.96191 14.962 4.92171 14.9585C4.89991 14.9566 4.90088 14.9562 4.91527 14.9584C4.92166 14.9594 4.94687 14.9634 4.9818 14.9721C4.99027 14.9742 5.11186 15.0016 5.24679 15.0838L4.20577 16.7915ZM12.7943 16.7915C12.8559 16.7539 13.0102 16.6605 13.1487 16.5031C13.3085 16.3217 13.3931 16.1226 13.4379 15.9381C13.5033 15.6688 13.4998 15.3197 13.4999 15.0064L11.4999 15.0061C11.4998 15.194 11.4988 15.3171 11.4951 15.4054C11.4933 15.4479 11.4913 15.4726 11.4899 15.4853C11.4885 15.4984 11.4888 15.4892 11.4943 15.4662C11.5003 15.4418 11.5133 15.3972 11.54 15.3426C11.5681 15.2852 11.6047 15.2303 11.6479 15.1812C11.6891 15.1344 11.7263 15.1044 11.7457 15.0899C11.7625 15.0774 11.7703 15.0734 11.7532 15.0838L12.7943 16.7915ZM13.4999 15.0064C13.4999 14.8081 13.502 14.5938 13.4896 14.4213C13.4771 14.2474 13.4439 13.9688 13.28 13.6953C13.1045 13.4021 12.859 13.2445 12.6857 13.1532C12.5335 13.0731 12.3402 12.9971 12.1934 12.9371L11.4365 14.7883C11.5314 14.8271 11.5975 14.8538 11.6565 14.8788C11.7149 14.9036 11.742 14.9167 11.7538 14.9229C11.7651 14.9288 11.7401 14.9171 11.7017 14.8851C11.6581 14.8487 11.6073 14.7948 11.5643 14.723C11.5227 14.6536 11.5045 14.5942 11.4971 14.5636C11.4908 14.5373 11.4924 14.5317 11.4947 14.5644C11.497 14.5965 11.4988 14.6449 11.4995 14.723C11.5002 14.8014 11.4999 14.8896 11.4999 15.0061L13.4999 15.0064ZM12.1935 12.9371C11.588 12.6895 11.3897 12.4942 11.217 12.1987L9.49014 13.2075C9.94356 13.9837 10.547 14.4246 11.4364 14.7883L12.1935 12.9371ZM11.2171 12.1987C11.1093 12.0143 11.0866 11.9499 11.0663 11.8354C11.0347 11.6579 11.0189 11.3775 11.0088 10.7471L9.00904 10.7791C9.0186 11.3762 9.0325 11.8217 9.09709 12.1853C9.17288 12.6118 9.31268 12.9038 9.49014 13.2075L11.2171 12.1987ZM11.0088 10.7471L10.9923 9.71329L8.99252 9.74524L9.00904 10.779L11.0088 10.7471ZM10.4214 10.6326L10.6548 10.5217L9.79682 8.71511L9.56342 8.82595L10.4214 10.6326ZM10.6547 10.5218C11.2591 10.2348 11.8975 9.74543 12.3129 9.23706L10.764 7.97171C10.5477 8.23654 10.1507 8.54709 9.79687 8.71509L10.6547 10.5218ZM12.3129 9.23703C12.3563 9.1839 12.3726 9.16489 12.3796 9.15734C12.3849 9.15153 12.3558 9.18487 12.3005 9.22448C12.2713 9.24544 12.239 9.26522 12.2043 9.2827C12.1702 9.2999 12.1405 9.31152 12.1186 9.31903C12.098 9.32611 12.0846 9.32945 12.084 9.32959C12.0835 9.32973 12.0848 9.32939 12.0889 9.32845C12.0931 9.32752 12.0988 9.32626 12.107 9.32449L11.6886 7.36876C11.6068 7.38626 11.3696 7.43094 11.1348 7.59936C10.9565 7.72723 10.8208 7.90222 10.764 7.97174L12.3129 9.23703ZM12.1071 9.32448C14.4231 8.82885 16.1341 7.03146 16.9434 4.56135L15.0428 3.93863C14.402 5.89451 13.1564 7.05464 11.6885 7.36877L12.1071 9.32448ZM16.9434 4.56134C17.1632 3.89065 17.3319 3.15256 17.4231 2.53233C17.4685 2.22361 17.4981 1.92133 17.5004 1.6585C17.5016 1.52788 17.4963 1.38599 17.4763 1.24724C17.4593 1.13001 17.4192 0.915188 17.2915 0.705729L15.5838 1.7468C15.5368 1.66963 15.5159 1.60644 15.5078 1.57914C15.5031 1.56323 15.5003 1.55126 15.4989 1.54422C15.4974 1.53707 15.4968 1.5331 15.4968 1.53285C15.4967 1.53253 15.497 1.5348 15.4975 1.53997C15.498 1.54509 15.4986 1.55236 15.4991 1.56194C15.5001 1.58141 15.5008 1.60747 15.5005 1.64069C15.4992 1.7801 15.4821 1.9847 15.4443 2.24141C15.3693 2.75204 15.2262 3.37897 15.0428 3.93863L16.9434 4.56134ZM17.2915 0.70571C17.2854 0.695619 17.2859 0.696286 17.2715 0.672195C17.2617 0.655715 17.2423 0.623452 17.218 0.587498C17.1646 0.508709 17.0757 0.394348 16.9355 0.289707C16.6655 0.0882673 16.3696 0.0474181 16.2103 0.0302753C15.8898 -0.00420974 15.3164 0.000163073 14.336 0.000105817L14.3359 2.00011C14.8537 2.00014 15.2255 1.99952 15.5013 2.00219C15.7867 2.00495 15.9259 2.01122 15.9963 2.0188C16.0876 2.02861 15.9228 2.0295 15.7394 1.89262C15.6424 1.82026 15.5856 1.74388 15.5625 1.70979C15.561 1.7075 15.5348 1.66644 15.5838 1.74682L17.2915 0.70571ZM14.336 0.000105817L12.5001 -1.41934e-05L12.4999 1.99999L14.3359 2.00011L14.336 0.000105817ZM13.5 0.99963L13.4999 0.66371L11.4999 0.664422L11.5 1.00034L13.5 0.99963ZM13.4999 0.663749C13.4998 0.479711 13.4965 0.18936 13.3921 -0.0885706C13.2537 -0.456778 13.0015 -0.665191 12.7943 -0.79151L11.7531 0.916122C11.7531 0.91608 11.7422 0.909472 11.7252 0.89635C11.7076 0.882775 11.6826 0.861534 11.6549 0.831789C11.593 0.765242 11.5476 0.688535 11.5199 0.615052C11.4964 0.552354 11.4942 0.514037 11.4958 0.529069C11.4974 0.544434 11.4999 0.583066 11.4999 0.664382L13.4999 0.663749ZM12.7942 -0.791551C12.6543 -0.876848 12.5243 -0.907174 12.504 -0.912247C12.4573 -0.923946 12.4169 -0.930818 12.3922 -0.93467C12.341 -0.942624 12.2904 -0.947681 12.2504 -0.951133C12.1671 -0.958332 12.0642 -0.964011 11.9529 -0.968788C11.7269 -0.978481 11.4208 -0.986276 11.0668 -0.992421C10.3564 -1.00475 9.42679 -1.01086 8.5 -1.01086C7.5732 -1.01086 6.64357 -1.00475 5.93322 -0.992421C5.57918 -0.986276 5.27313 -0.978481 5.04711 -0.968788C4.93574 -0.964011 4.83293 -0.958332 4.74959 -0.951133C4.70963 -0.947681 4.65897 -0.942624 4.60784 -0.93467C4.58308 -0.930818 4.54272 -0.923946 4.496 -0.912247C4.47574 -0.907174 4.34569 -0.876848 4.20577 -0.791551L5.24679 0.916162C5.11186 0.998411 4.99027 1.02574 4.9818 1.02786C4.94687 1.0366 4.92166 1.04057 4.91527 1.04156C4.90088 1.0438 4.89991 1.04333 4.92171 1.04145C4.96191 1.03797 5.03093 1.03374 5.13281 1.02938C5.3333 1.02078 5.6194 1.01333 5.96793 1.00728C6.66272 0.995218 7.57994 0.989136 8.5 0.989136C9.42005 0.989136 10.3373 0.995218 11.0321 1.00728C11.3806 1.01333 11.6667 1.02078 11.8672 1.02938C11.9691 1.03374 12.0381 1.03797 12.0783 1.04145C12.1001 1.04333 12.0991 1.0438 12.0847 1.04156C12.0783 1.04057 12.0531 1.0366 12.0182 1.02786C12.0097 1.02574 11.8881 0.998411 11.7532 0.916162L12.7942 -0.791551ZM3.50817 4.30935C3.51343 5.4323 3.51641 6.02795 3.52708 6.36965C3.53885 6.74666 3.56276 6.90336 3.62457 7.12506L5.5511 6.58795C5.54523 6.56689 5.53461 6.57954 5.5261 6.30724C5.5165 5.99964 5.51349 5.44075 5.50815 4.29998L3.50817 4.30935ZM3.62456 7.12503C3.65649 7.23956 3.65434 7.23283 3.65158 7.21826C3.65156 7.21812 3.62599 7.10256 3.64654 6.94775C3.65813 6.86038 3.69003 6.71391 3.78817 6.55877C3.89579 6.38865 4.05415 6.25469 4.2421 6.17707C4.55809 6.04658 4.82625 6.12813 4.85131 6.13496C4.88929 6.14531 4.91648 6.15563 4.92829 6.16029C4.93512 6.16298 4.94014 6.16511 4.94302 6.16636C4.94452 6.16701 4.94563 6.16751 4.94634 6.16782C4.94704 6.16814 4.94741 6.16831 4.94741 6.16831C4.94742 6.16831 4.94712 6.16818 4.9465 6.16788C4.94589 6.16759 4.945 6.16717 4.94382 6.1666C4.94143 6.16544 4.93815 6.16383 4.93382 6.16167C4.92494 6.15724 4.91353 6.15142 4.89849 6.14363C4.86588 6.12675 4.83202 6.10885 4.78086 6.08209L3.85385 7.85428C3.92697 7.89253 4.02965 7.94742 4.10833 7.98378C4.14696 8.00163 4.22749 8.03789 4.32538 8.06457C4.382 8.08001 4.67339 8.16279 5.00548 8.02565C5.46348 7.83652 5.6006 7.42598 5.62915 7.21091C5.65274 7.0332 5.62428 6.88636 5.61665 6.84608C5.59868 6.75122 5.56246 6.62871 5.55111 6.58799L3.62456 7.12503ZM4.78076 6.08204C3.70909 5.52161 2.76583 4.03783 2.57143 2.11055L0.581525 2.31126C0.820087 4.67638 2.00586 6.88788 3.85395 7.85433L4.78076 6.08204ZM2.57143 2.11052L2.55015 1.8996L0.560247 2.10037L0.581527 2.31129L2.57143 2.11052ZM1.5552 2.99999H3.02628V0.999986H1.5552V2.99999ZM3.02628 2.99999H4.49736V0.999986H3.02628V2.99999ZM3.49737 2.00467L3.50817 4.30935L5.50815 4.29998L5.49734 1.9953L3.49737 2.00467ZM14.4302 2.06015C14.1786 4.15045 13.1647 5.65397 12.1364 6.12192L12.9647 7.9423C14.8753 7.07288 16.1195 4.76192 16.4159 2.29918L14.4302 2.06015ZM12.1365 6.12186C12.0366 6.16728 12.0529 6.16055 12.059 6.1582C12.0685 6.15453 12.0915 6.1459 12.1235 6.13676C12.1531 6.12831 12.2121 6.11302 12.2899 6.10579C12.4327 6.09251 12.8484 6.09617 13.1481 6.47638C13.3833 6.77475 13.3585 7.09019 13.3565 7.12584C13.354 7.17148 13.3485 7.20582 13.3457 7.22217C13.3426 7.23986 13.3398 7.25151 13.3393 7.254C13.3386 7.25687 13.3399 7.2512 13.3476 7.22387C13.3521 7.20778 13.366 7.15875 13.3754 7.12514L11.4489 6.58787C11.4366 6.63217 11.408 6.72976 11.3928 6.79436C11.3852 6.82671 11.3653 6.91218 11.3596 7.01533C11.3563 7.07446 11.3344 7.40622 11.5775 7.71461C11.8852 8.10483 12.3136 8.11221 12.475 8.09721C12.629 8.08289 12.7486 8.03584 12.7787 8.02422C12.8456 7.99843 12.9478 7.94999 12.9646 7.94235L12.1365 6.12186ZM13.3754 7.12506C13.4372 6.90336 13.4611 6.74666 13.4729 6.36965C13.4836 6.02795 13.4866 5.4323 13.4918 4.30935L11.4918 4.29998C11.4865 5.44075 11.4835 5.99964 11.4739 6.30724C11.4654 6.57954 11.4548 6.56689 11.4489 6.58795L13.3754 7.12506ZM13.4918 4.30935L13.5026 2.00467L11.5026 1.9953L11.4918 4.29998L13.4918 4.30935ZM12.5026 2.99999H13.9737V0.999986H12.5026V2.99999ZM13.9737 2.99999H15.4447V0.999986H13.9737V2.99999ZM14.4519 1.88041L14.4303 2.06009L16.4159 2.29924L16.4375 2.11956L14.4519 1.88041Z" fill="#F59E0B" mask="url(#path-1-inside-1_0_936)"/>
</svg>
