<svg width="16" height="16" viewBox="0 0 16 16" fill="none" xmlns="http://www.w3.org/2000/svg">
<path d="M7.99854 14.9017C7.68598 14.9017 7.40168 14.831 7.14564 14.6897C6.88959 14.5484 6.72196 14.3437 6.64274 14.0756H6.4094C6.09877 14.0442 5.8356 13.9089 5.6199 13.6697C5.4042 13.4305 5.29635 13.1571 5.29635 12.8495V10.5886C4.55674 10.0835 3.97739 9.45103 3.5583 8.69126C3.13923 7.93147 2.92969 7.08977 2.92969 6.16616C2.92969 4.76103 3.42268 3.56337 4.40867 2.57317C5.39467 1.58299 6.59054 1.08789 7.99629 1.08789C9.40204 1.08789 10.6002 1.58299 11.5909 2.57317C12.5815 3.56337 13.0768 4.76103 13.0768 6.16616C13.0768 7.09128 12.8657 7.93391 12.4435 8.69406C12.0212 9.4542 11.4435 10.0857 10.7101 10.5886V12.8495C10.7101 13.1571 10.6007 13.4305 10.3819 13.6697C10.163 13.9089 9.90144 14.0442 9.59709 14.0756H9.36375C9.27825 14.3437 9.10591 14.5484 8.84672 14.6897C8.58754 14.831 8.30482 14.9017 7.99854 14.9017ZM6.61665 12.8495H9.38042V12.1162H6.61665V12.8495ZM6.61665 11.4495H9.38042V10.7828H6.61665V11.4495ZM6.38187 9.69804H7.55869V7.51832L6.0065 5.96616L6.59854 5.37412L7.99854 6.77412L9.39854 5.37412L9.99057 5.96616L8.43839 7.51832V9.69804H9.6152C10.263 9.38693 10.7803 8.9105 11.167 8.26874C11.5537 7.627 11.7471 6.92738 11.7471 6.16989C11.7471 5.11475 11.3861 4.22558 10.664 3.50239C9.94196 2.7792 9.05404 2.41761 8.00024 2.41761C6.94645 2.41761 6.05796 2.77887 5.33477 3.50139C4.61158 4.22391 4.24999 5.11241 4.24999 6.16687C4.24999 6.92388 4.44334 7.62388 4.83005 8.26687C5.21678 8.90987 5.73405 9.38693 6.38187 9.69804Z" fill="#EA580C"/>
</svg>
