<svg width="12" height="14" viewBox="0 0 12 14" fill="none" xmlns="http://www.w3.org/2000/svg">
<path d="M6 13.9026C5.68745 13.9026 5.40315 13.832 5.1471 13.6907C4.89106 13.5494 4.72342 13.3447 4.6442 13.0766H4.41087C4.10024 13.0452 3.83707 12.9099 3.62137 12.6707C3.40567 12.4315 3.29782 12.1581 3.29782 11.8505V9.5896C2.55821 9.08447 1.97886 8.45201 1.55977 7.69223C1.14069 6.93244 0.931152 6.09074 0.931152 5.16713C0.931152 3.76201 1.42415 2.56435 2.41014 1.57415C3.39614 0.583962 4.59201 0.0888672 5.99775 0.0888672C7.40351 0.0888672 8.6017 0.583962 9.59234 1.57415C10.583 2.56435 11.0783 3.76201 11.0783 5.16713C11.0783 6.09226 10.8672 6.93489 10.4449 7.69503C10.0227 8.45518 9.44494 9.0867 8.7116 9.5896V11.8505C8.7116 12.1581 8.60219 12.4315 8.38335 12.6707C8.16451 12.9099 7.90291 13.0452 7.59855 13.0766H7.36522C7.27972 13.3447 7.10737 13.5494 6.84819 13.6907C6.58901 13.832 6.30628 13.9026 6 13.9026ZM4.61812 11.8505H7.38189V11.1171H4.61812V11.8505ZM4.61812 10.4505H7.38189V9.7838H4.61812V10.4505ZM4.38334 8.69902H5.56015V6.5193L4.00797 4.96713L4.6 4.3751L6 5.7751L7.4 4.3751L7.99204 4.96713L6.43985 6.5193V8.69902H7.61667C8.26449 8.38791 8.78176 7.91147 9.16849 7.26972C9.5552 6.62797 9.74855 5.92836 9.74855 5.17087C9.74855 4.11572 9.38752 3.22656 8.66547 2.50337C7.94342 1.78018 7.0555 1.41858 6.0017 1.41858C4.94791 1.41858 4.05942 1.77985 3.33624 2.50237C2.61305 3.22489 2.25145 4.11338 2.25145 5.16785C2.25145 5.92486 2.44481 6.62486 2.83152 7.26785C3.21824 7.91085 3.73551 8.38791 4.38334 8.69902Z" fill="#FB923C"/>
</svg>
