<svg width="14" height="12" viewBox="0 0 14 12" fill="none" xmlns="http://www.w3.org/2000/svg">
<path d="M5.81688 8.58341C6.07244 8.83897 6.44031 8.95841 6.9205 8.94174C7.4007 8.92508 7.75505 8.74452 7.98355 8.40008L11.0046 3.77109C11.1075 3.6049 11.1007 3.46831 10.9843 3.36131C10.8678 3.2543 10.7297 3.25224 10.5698 3.35514L6.00021 6.40008C5.66688 6.62858 5.4891 6.9857 5.46688 7.47146C5.44466 7.9572 5.56133 8.32785 5.81688 8.58341ZM2.23355 11.5689C2.00069 11.5689 1.77376 11.5107 1.55275 11.3943C1.33173 11.2779 1.16735 11.1151 1.05963 10.9059C0.764453 10.3663 0.535953 9.80733 0.374131 9.22906C0.212275 8.6508 0.131348 8.04114 0.131348 7.40008C0.131348 6.44645 0.311059 5.54875 0.670481 4.70696C1.0299 3.86517 1.5206 3.12894 2.14258 2.49826C2.76456 1.86758 3.49403 1.36662 4.331 0.99536C5.16796 0.624105 6.0577 0.438477 7.00021 0.438477C7.49394 0.438477 8.01302 0.500793 8.55747 0.625426C9.10191 0.75006 9.6408 0.956099 10.1741 1.24354C10.4592 1.38461 10.6191 1.56952 10.6538 1.79826C10.6886 2.027 10.6236 2.21578 10.4589 2.36458C10.3512 2.46264 10.2217 2.52472 10.0705 2.55081C9.9193 2.57689 9.77799 2.55587 9.64658 2.48776C9.1862 2.2322 8.72014 2.04839 8.2484 1.93631C7.77666 1.82423 7.3606 1.76819 7.00021 1.76819C5.47606 1.76819 4.17026 2.3159 3.08283 3.41131C1.99539 4.50672 1.45166 5.83631 1.45166 7.40008C1.45166 7.90008 1.51797 8.39307 1.65058 8.87906C1.78319 9.36505 1.97413 9.82157 2.2234 10.2486H11.7604C12.0048 9.84863 12.1945 9.39609 12.3296 8.89101C12.4646 8.38594 12.5321 7.87785 12.5321 7.36674C12.5321 6.98703 12.4872 6.57327 12.3973 6.12544C12.3075 5.67762 12.1442 5.24888 11.9075 4.83921C11.8282 4.69042 11.8029 4.54042 11.8314 4.38921C11.8599 4.238 11.9343 4.11408 12.0546 4.01746C12.2208 3.88606 12.4043 3.8421 12.6053 3.88558C12.8063 3.92905 12.9551 4.04887 13.0517 4.24501C13.3106 4.7624 13.5092 5.27073 13.6473 5.77001C13.7855 6.26928 13.857 6.76819 13.8618 7.26674C13.8666 7.94597 13.7925 8.59258 13.6394 9.20659C13.4862 9.8206 13.2534 10.387 12.9408 10.9059C12.7761 11.1991 12.603 11.3829 12.4216 11.4573C12.2402 11.5317 12.0164 11.5689 11.7502 11.5689H2.23355Z" fill="#FB923C"/>
</svg>
