<svg width="28" height="28" viewBox="0 0 14 14" fill="none" xmlns="http://www.w3.org/2000/svg">
<path d="M7 14C3.12884 14 0 10.8722 0 7C0 3.12881 3.12785 0 7 0C10.8712 0 14 3.12782 14 7C14 10.8712 10.8722 14 7 14Z" fill="white"/>
<path d="M5 10.5553V3.44442C5 3.28052 5.087 3.12992 5.22634 3.05258C5.36569 2.97525 5.5348 2.98373 5.66629 3.07463L10.8091 6.63009C10.9284 6.71251 11 6.85126 11 6.99988C11 7.1485 10.9284 7.28725 10.8091 7.36968L5.66629 10.9251C5.38471 11.1198 5 10.913 5 10.5553Z" fill="#1B2F6E"/>
</svg>
